# xmcd CD database file
#
# Track frame offsets:
#	150
#	13944
#	25557
#	39053
#	50709
#	63974
#	75560
#	89279
#	102789
#	114431
#	125964
#	138062
#	149195
#	161028
#	171674
#	187590
#	201148
#	213100
#	223972
#	234844
#
# Disc length: 3316 seconds
#
# Revision: 0
# Processed by: cddbd v1.5.2PL0 Copyright (c) Steve Scherf et al.
# Submitted via: CDex 1.51
#
DISCID=160cf214
DTITLE=Sarah Vaughan - The Primo Collection CD2
DYEAR=2011
DGENRE=Jazz
TTITLE0=Thinking Of You
TTITLE1=I Love the Guy
TTITLE2=Ain't Misbehavin'
TTITLE3=Nice Work if You Can Get It
TTITLE4=Sinner or Saint
TTITLE5=These Things I Offer You
TTITLE6=Time
TTITLE7=My Tormented Heart
TTITLE8=Vanity
TTITLE9=C'est La Vie
TTITLE10=Make Yourself Comfortable
TTITLE11=How Important Can It Be
TTITLE12=Whatever Lola Wants
TTITLE13=The Banana Boat Song
TTITLE14=Poor Butterfly
TTITLE15=Misty
TTITLE16=Passing Strangers
TTITLE17=Broken Hearted Melody
TTITLE18=Eternally
TTITLE19=Close To You
EXTD=YEAR: 2011
EXTT0=
EXTT1=
EXTT2=
EXTT3=
EXTT4=
EXTT5=
EXTT6=
EXTT7=
EXTT8=
EXTT9=
EXTT10=
EXTT11=
EXTT12=
EXTT13=
EXTT14=
EXTT15=
EXTT16=
EXTT17=
EXTT18=
EXTT19=
PLAYORDER=
